<?xml version="1.0" encoding="utf-8"?>
<!-- Generator: Adobe Illustrator 23.0.2, SVG Export Plug-In . SVG Version: 6.00 Build 0)  -->
<svg version="1.1" id="Layer_1" xmlns="http://www.w3.org/2000/svg" xmlns:xlink="http://www.w3.org/1999/xlink" x="0px" y="0px"
	 viewBox="0 0 128 128" style="enable-background:new 0 0 128 128;" xml:space="preserve">
<style type="text/css">
	.st0{fill:#6181C1;}
</style>
<title>_high-res logo</title>
<g>
	<path class="st0" d="M96.6,128c-4.2-3.1-8.4-6.2-12.6-9.3c-13.9-10.4-27.8-20.8-41.6-31.2c-3.9-2.8-7.3-6.3-10.2-10.1
		c-6.5-9.1-6.2-19.2,0.9-27.8c4.1-4.7,8.7-8.9,13.9-12.3c-0.3,1.9-0.7,3.6-0.4,5.4c0.7,3.8,2.9,6.8,5.4,9.5
		c3.9,4.1,8.6,7.3,13.3,10.5c0.7,0.5,1.5,1,2.2,1.5c5.7,4.2,11.4,8.5,17.2,12.6c4.8,3.5,8.9,7.6,11.6,13c4.3,8.7,4.9,17.9,3.1,27.3
		C98.8,120.8,97.8,124.5,96.6,128z"/>
	<path class="st0" d="M99.6,10.8c-0.8-3.7-1.8-7.3-3-10.8C92.4,3.1,88.2,6.2,84,9.3C73.7,17,63.4,24.7,53.2,32.4
		c-0.3,1.8-0.6,3.4-0.3,5.1c0.7,3.8,2.9,6.8,5.5,9.5c3.9,4.2,8.6,7.3,13.3,10.4c0.5,0.3,1.5,1,2.4,1.6c3.6-2.7,7.2-5.4,10.9-8
		c4.8-3.5,8.9-7.6,11.6-13C100.7,29.5,101.3,20.3,99.6,10.8z"/>
</g>
</svg>
