<?xml version="1.0" encoding="utf-8"?>
<!-- Generator: Adobe Illustrator 23.0.2, SVG Export Plug-In . SVG Version: 6.00 Build 0)  -->
<svg version="1.1" id="Layer_1" xmlns="http://www.w3.org/2000/svg" xmlns:xlink="http://www.w3.org/1999/xlink" x="0px" y="0px"
	 viewBox="0 0 643.7 116" style="enable-background:new 0 0 643.7 116;" xml:space="preserve">
<style type="text/css">
	.st0{fill:#25292B;}
	.st1{fill:url(#SVGID_1_);}
	.st2{fill:#2DBFCC;}
</style>
<title>_high-res logo</title>
<g>
	<path class="st0" d="M23.2,69.4c0,6.2-2.4,6.2-3.3,6.2c-1,0-1.9-0.4-2.5-1.2c-0.9-1.2-1.5-2.6-1.6-4.1l-0.5-3.5L0,82.4l0.8,1.2
		c5,7.3,11.6,11,19.6,11c2.5,0,5.1-0.3,7.5-1c2.3-0.6,4.5-1.6,6.6-2.9c2-1.2,3.7-2.7,5.2-4.5c1.5-1.8,2.7-3.7,3.6-5.9
		c0.6-1.6,1-3.2,1.2-4.9c0.2-1.9,0.3-3.9,0.3-5.8V19.8H23.2V69.4z"/>
	<path class="st0" d="M104.8,59.3c0,2-0.1,4-0.2,6.1c-0.1,1.8-0.5,3.5-1.3,5.1c-0.7,1.4-1.7,2.6-3,3.4c-1.8,1-3.9,1.5-6,1.3
		c-2.1,0.1-4.2-0.3-6-1.3c-1.3-0.8-2.4-2-3-3.4c-0.7-1.6-1.1-3.4-1.2-5.1c-0.2-2.1-0.2-4.1-0.2-6.1V19.8H62.3v42
		c0,11.2,2.7,19.6,8,24.9s13.4,8,24.1,8s18.8-2.7,24-8s7.9-13.6,7.9-24.9v-42h-21.5V59.3z"/>
	<path class="st0" d="M177.1,46.9c-1.5-0.5-3-1-4.5-1.4c-1.3-0.4-2.6-0.8-3.8-1.4c-0.9-0.4-1.7-1-2.4-1.7c-0.4-0.5-0.7-1.2-0.6-1.8
		c0-1.2,0.5-2.3,1.5-2.9c2.1-1.6,5.9-1.8,9.7-0.3c2,0.8,3.8,1.9,5.4,3.2l1.7,1.4l9-17.6l-1.5-0.8c-3.5-1.9-7.3-3.3-11.1-4.3
		c-8.1-2.1-15.7-2-21.8,0.3c-3,1.1-5.8,2.8-8.1,5c-2.3,2.2-4,4.9-5.2,7.8c-1.3,3.2-1.9,6.6-1.8,10c-0.1,3.2,0.5,6.3,1.8,9.3
		c1.1,2.4,2.7,4.5,4.7,6.2c1.9,1.6,4.1,2.9,6.5,3.8c2.3,0.9,4.6,1.7,6.9,2.5c1.9,0.7,3.6,1.3,4.9,1.8c1,0.4,2,0.9,3,1.6
		c0.5,0.4,1,0.9,1.3,1.5c0.3,0.6,0.4,1.3,0.4,1.9c0,1.3-0.6,2.5-1.6,3.3c-2.1,2-7.5,2.1-12.5,0c-2.8-1.3-5.3-3-7.5-5.1l-1.7-1.5
		L140,85.6l1.3,0.9c7.4,5.3,16.3,8.1,25.4,8.1c4,0.1,8.1-0.5,11.9-1.8c3.3-1.1,6.4-2.8,9.1-5.1c2.5-2.2,4.4-4.9,5.7-8
		c1.3-3.3,2-6.8,1.9-10.3c0-5.7-1.5-10.4-4.5-14S183.3,49,177.1,46.9z"/>
	<polygon class="st0" points="203.5,38.6 218.3,38.6 218.3,92.7 239.8,92.7 239.8,38.6 254.6,38.6 254.6,19.8 203.5,19.8 	"/>
	<path class="st0" d="M406.8,28.9c-3.7-3.5-8-6.3-12.8-8.2c-10.4-3.9-21.9-3.9-32.2,0c-19.6,7.6-29.3,29.6-21.7,49.2
		c3.9,10,11.7,17.9,21.7,21.7c10.4,3.9,21.9,3.9,32.2,0c4.8-1.8,9.1-4.6,12.8-8.1c3.6-3.5,6.4-7.6,8.3-12.2c4-9.7,4-20.5,0-30.2
		C413.2,36.6,410.4,32.4,406.8,28.9z M395.8,56.2c0,2.4-0.5,4.7-1.4,6.9c-0.9,2.1-2.2,3.9-3.9,5.5c-1.7,1.6-3.6,2.8-5.7,3.6
		c-4.4,1.7-9.3,1.7-13.7,0c-2.1-0.8-4-2.1-5.6-3.6c-1.6-1.6-2.9-3.4-3.9-5.5c-1.9-4.4-1.9-9.4,0-13.8c1.8-4.2,5.2-7.5,9.5-9.1
		c4.4-1.7,9.3-1.7,13.7,0c2.1,0.8,4,2.1,5.7,3.6c1.6,1.6,3,3.4,3.9,5.5C395.3,51.5,395.8,53.9,395.8,56.2L395.8,56.2z"/>
	<path class="st0" d="M450.1,19.8l-27.7,72.9h23l4.1-12h23.2l4.2,12h23l-27.7-72.9H450.1z M466.8,63.4h-11.2l5.6-16L466.8,63.4z"/>
	<path class="st0" d="M551.1,18.8c-7.7-1.7-15.8-1-23.1,1.9c-9.2,3.7-16.6,10.9-20.6,20c-4.2,9.9-4.2,21,0,30.9
		c2.1,4.5,4.9,8.7,8.5,12.2c7.1,7,16.6,10.9,26.6,10.9c2.5,0,5-0.2,7.4-0.7c2.7-0.5,5.4-1.3,8-2.2l3-1.1V63.6l-3,3.3
		c-4.3,4.6-9,6.8-14.3,6.8c-4.5,0-8.8-1.8-12-5c-1.6-1.6-2.8-3.4-3.6-5.5c-0.9-2.2-1.3-4.6-1.3-7c0-2.4,0.4-4.7,1.3-6.9
		c0.8-2,2-3.9,3.5-5.4c1.5-1.5,3.4-2.8,5.4-3.6c2.2-0.9,4.5-1.4,6.8-1.3c5.6,0,10.2,2.3,14.1,7l3.1,3.8V22l-1.1-0.4
		C557,20.4,554.1,19.5,551.1,18.8z"/>
	<polygon class="st0" points="622.2,19.8 622.2,46.6 599.7,46.6 599.7,19.8 578.1,19.8 578.1,92.7 599.7,92.7 599.7,64.1 
		622.2,64.1 622.2,92.7 643.7,92.7 643.7,19.8 	"/>
	
		<linearGradient id="SVGID_1_" gradientUnits="userSpaceOnUse" x1="268.6139" y1="46.8764" x2="333.0388" y2="111.3012" gradientTransform="matrix(1 0 0 -1 0 117.34)">
		<stop  offset="0" style="stop-color:#6181C1"/>
		<stop  offset="1" style="stop-color:#2DBFCC"/>
	</linearGradient>
	<path class="st1" d="M327,0c-3.8,2.8-7.6,5.6-11.4,8.4c-12.6,9.4-25.2,18.8-37.7,28.2c-3.5,2.6-6.6,5.7-9.2,9.2
		c-5.9,8.3-5.6,17.4,0.9,25.2c3.7,4.3,7.9,8,12.6,11.2c-0.4-1.6-0.5-3.3-0.3-4.9c0.6-3.5,2.6-6.2,4.9-8.6c3.5-3.8,7.8-6.6,12.1-9.5
		c0.7-0.4,1.3-0.9,2-1.4c5.2-3.8,10.3-7.7,15.5-11.5c4.4-3,8.1-7,10.6-11.7c3.9-7.9,4.4-16.2,2.8-24.8C329.1,6.5,328.1,3.2,327,0z"
		/>
	<path class="st2" d="M327,116c-3.8-2.8-7.6-5.6-11.4-8.4c-12.6-9.4-25.2-18.8-37.7-28.3c-3.5-2.6-6.6-5.7-9.2-9.2
		c-5.9-8.3-5.6-17.4,0.9-25.2c3.7-4.3,7.9-8,12.6-11.2c-0.4,1.6-0.5,3.3-0.3,4.9c0.6,3.5,2.6,6.2,4.9,8.6c3.5,3.8,7.8,6.6,12.1,9.5
		c0.7,0.4,1.3,0.9,2,1.4c5.2,3.8,10.3,7.7,15.5,11.5c4.4,3,8.1,7.1,10.6,11.8c3.9,7.9,4.4,16.2,2.8,24.8
		C329.1,109.5,328.1,112.8,327,116z"/>
</g>
</svg>
