<?xml version="1.0" encoding="utf-8"?>
<!-- Generator: Adobe Illustrator 23.0.2, SVG Export Plug-In . SVG Version: 6.00 Build 0)  -->
<svg version="1.1" id="Layer_1" xmlns="http://www.w3.org/2000/svg" xmlns:xlink="http://www.w3.org/1999/xlink" x="0px" y="0px"
	 viewBox="0 0 115 201.8" style="enable-background:new 0 0 115 201.8;" xml:space="preserve">
<style type="text/css">
	.st0{fill:url(#SVGID_1_);}
	.st1{fill:#2DBFCC;}
</style>
<title>_high-res logo</title>
<g>
	
		<linearGradient id="SVGID_1_" gradientUnits="userSpaceOnUse" x1="7.3081" y1="80.4801" x2="119.3543" y2="192.5263" gradientTransform="matrix(1 0 0 -1 0 203.06)">
		<stop  offset="0" style="stop-color:#6181C1"/>
		<stop  offset="1" style="stop-color:#2DBFCC"/>
	</linearGradient>
	<path class="st0" d="M108.8,0C102.2,4.9,95.6,9.8,89,14.7C67.1,31,45.2,47.4,23.4,63.8c-6.1,4.5-11.5,9.9-16,16
		C-2.9,94.2-2.4,110,8.8,123.7c6.4,7.4,13.7,14,21.9,19.4c-0.4-2.9-1.1-5.7-0.6-8.5c1.1-6.1,4.5-10.7,8.6-15
		c6.2-6.6,13.6-11.5,21-16.5c1.2-0.8,2.3-1.6,3.5-2.4c9-6.6,18-13.4,27-19.9c7.6-5.5,14.1-12.1,18.3-20.5
		c6.8-13.8,7.7-28.2,4.9-43.1C112.3,11.3,110.8,5.6,108.8,0z"/>
	<path class="st1" d="M108.8,201.8c-6.6-4.9-13.3-9.8-19.9-14.7c-21.9-16.4-43.8-32.7-65.6-49.2c-6.1-4.5-11.5-9.9-16-16
		c-10.3-14.4-9.8-30.2,1.5-43.8c6.4-7.4,13.7-14,21.9-19.4c-0.4,2.9-1.1,5.7-0.6,8.5c1.1,6,4.5,10.7,8.6,15
		c6.2,6.5,13.6,11.5,21,16.5c1.2,0.8,2.3,1.6,3.5,2.4c9,6.6,18,13.4,27,19.9c7.6,5.5,14.1,12.1,18.3,20.5
		c6.8,13.8,7.7,28.2,4.9,43.1C112.3,190.4,110.8,196.2,108.8,201.8z"/>
</g>
</svg>
